# xmcd
#
# Track frame offsets:
#	150
#	16759
#	34820
#	46506
#	65638
#	81498
#	98044
#	112758
#	129929
#	148207
#	162823
#	176765
#	190041
#	206972
#	225114
#
# Disc length: 3210 seconds
#
# Revision: 1
# Processed by: cddbd v1.5.2PL0 Copyright (c) Steve Scherf et al.
# Submitted via: audiograbber 1.83.01
#
DISCID=bc0c880f
DTITLE=Smokie - The Very Best Of
DYEAR=1900
DGENRE=Oldies
TTITLE0=Living Next Door To Alice
TTITLE1=If You Think You Know How To Love Me
TTITLE2=Needles And Pins
TTITLE3=Lay Back In The Arms Of Someone
TTITLE4=Oh Carol
TTITLE5=Mexican Girl
TTITLE6=Don't Play Your Rock'n Roll on Me
TTITLE7=For A Few Dollars More
TTITLE8=Baby It's You
TTITLE9=I'll Meet You At Midnight
TTITLE10=Take Good Care Of My Baby
TTITLE11=Something Is Making Me Blue
TTITLE12=Rose-A-Lee
TTITLE13=What Can I Do
TTITLE14=It's Your Life
EXTD=
EXTT0=
EXTT1=
EXTT2=
EXTT3=
EXTT4=
EXTT5=
EXTT6=
EXTT7=
EXTT8=
EXTT9=
EXTT10=
EXTT11=
EXTT12=
EXTT13=
EXTT14=
PLAYORDER=
